<svg xmlns="http://www.w3.org/2000/svg" width="79" height="22" viewBox="0 0 79 22"><defs><style>.a{fill:#202329}</style></defs><g transform="translate(-1161.267 -13.762)"><rect class="a" width="79" height="22" rx="5" transform="translate(1161.267 13.762)"/><path d="M1166.267 13.762h29v22h-29a5 5 0 01-5-5v-12a5 5 0 015-5z" fill="#fff"/><path class="a" d="M1166.267 14.762a4 4 0 00-4 4v12a4 4 0 004 4h28v-20h-28m0-1h29v22h-29a5 5 0 01-5-5v-12a5 5 0 015-5z"/><text transform="translate(1178.507 30)" font-family="Montserrat-MediumItalic,Montserrat" font-weight="500" font-style="italic" font-size="15" fill="#202329"><tspan x="-11.4" y="0">via</tspan></text><text transform="translate(1217.507 30)" font-family="Montserrat-Bold,Montserrat" font-weight="700" font-size="15" fill="#fff"><tspan x="-16.815" y="0">Ipv6</tspan></text></g></svg>